<?xml version="1.0" encoding="UTF-8" standalone="no"?>
<svg
   xmlns:dc="http://purl.org/dc/elements/1.1/"
   xmlns:cc="http://web.resource.org/cc/"
   xmlns:rdf="http://www.w3.org/1999/02/22-rdf-syntax-ns#"
   xmlns:svg="http://www.w3.org/2000/svg"
   xmlns="http://www.w3.org/2000/svg"
   xmlns:sodipodi="http://sodipodi.sourceforge.net/DTD/sodipodi-0.dtd"
   xmlns:inkscape="http://www.inkscape.org/namespaces/inkscape"
   preserveAspectRatio="xMinYMin meet"
   width="100%"
   height="100%"
   viewBox="0 0 403.32947 364.46478"
   version="1.0"
   id="svg2062"
   sodipodi:version="0.32"
   inkscape:version="0.44"
   sodipodi:docname="srgb_gamma.svg"
   sodipodi:docbase="/Users/dicklyon/Desktop">
  <metadata
     id="metadata2214">
    <rdf:RDF>
      <cc:Work
         rdf:about="">
        <dc:format>image/svg+xml</dc:format>
        <dc:type
           rdf:resource="http://purl.org/dc/dcmitype/StillImage" />
      </cc:Work>
    </rdf:RDF>
  </metadata>
  <defs
     id="defs2212">
    <clipPath
       id="ID000000">
      <rect
         id="rect2071"
         height="319.48001"
         width="344.10001"
         y="29.4"
         x="57.720001" />
    </clipPath>
  </defs>
  <sodipodi:namedview
     inkscape:window-height="855"
     inkscape:window-width="1008"
     inkscape:pageshadow="2"
     inkscape:pageopacity="0.0"
     guidetolerance="10.0"
     gridtolerance="10.0"
     objecttolerance="10.0"
     borderopacity="1.0"
     bordercolor="#666666"
     pagecolor="#ffffff"
     id="base"
     inkscape:zoom="1.3637059"
     inkscape:cx="222"
     inkscape:cy="196"
     inkscape:window-x="20"
     inkscape:window-y="42"
     inkscape:current-layer="svg2062" />
  <desc
     id="desc2064">Matlab Figure Converted by PLOT2SVG written by Juerg Schwizer</desc>
  <polyline
     style="fill:white;fill-opacity:1;stroke:none;stroke-width:0.93750001;stroke-miterlimit:4;stroke-dasharray:none;stroke-opacity:1"
     id="polyline2073"
     points="57.720,348.880 401.820,348.880 401.820,29.400 57.720,29.400 "
     transform="translate(-27.49025,-10.31112)" />
  <polyline
     style="fill:white;fill-opacity:1;stroke:none;stroke-width:0.93750001;stroke-miterlimit:4;stroke-dasharray:none;stroke-opacity:1"
     id="polyline2075"
     points="57.720,29.400 401.820,29.400 401.820,29.400 57.720,29.400 "
     transform="translate(-27.49025,-10.31112)" />
  <polyline
     style="fill:white;fill-opacity:1;stroke:none;stroke-width:0.93750001;stroke-miterlimit:4;stroke-dasharray:none;stroke-opacity:1"
     id="polyline2077"
     points="57.720,348.880 57.720,348.880 57.720,29.400 57.720,29.400 "
     transform="translate(-27.49025,-10.31112)" />
  <polyline
     style="fill:none;stroke:black;stroke-width:1.00000001;stroke-miterlimit:4;stroke-dasharray:3.00000002,3.00000002;stroke-dashoffset:6.00000003"
     id="polyline2083"
     points="57.720,348.880 58.064,348.880 58.408,348.880 58.752,348.879 59.096,348.879 59.441,348.878 59.785,348.877 60.129,348.875 60.473,348.874 60.817,348.872 61.161,348.869 61.505,348.867 61.849,348.864 62.193,348.861 62.537,348.858 62.882,348.854 63.226,348.850 63.570,348.846 63.914,348.841 64.258,348.836 64.602,348.831 64.946,348.826 65.290,348.820 65.634,348.814 65.978,348.807 66.323,348.800 66.667,348.793 67.011,348.786 67.355,348.778 67.699,348.770 68.043,348.761 68.387,348.752 68.731,348.743 69.075,348.733 69.419,348.723 69.764,348.713 70.108,348.703 70.452,348.692 70.796,348.680 71.140,348.668 71.484,348.656 71.828,348.644 72.172,348.631 72.516,348.618 72.860,348.604 73.204,348.590 73.549,348.576 73.893,348.561 74.237,348.546 74.581,348.530 74.925,348.514 75.269,348.498 75.613,348.481 75.957,348.464 76.301,348.447 76.645,348.429 76.990,348.411 77.334,348.392 77.678,348.373 78.022,348.354 78.366,348.334 78.710,348.314 79.054,348.293 79.398,348.272 79.742,348.251 80.087,348.229 80.431,348.207 80.775,348.184 81.119,348.161 81.463,348.137 81.807,348.114 82.151,348.089 82.495,348.065 82.839,348.039 83.183,348.014 83.528,347.988 83.872,347.962 84.216,347.935 84.560,347.908 84.904,347.880 85.248,347.852 85.592,347.823 85.936,347.794 86.280,347.765 86.624,347.735 86.969,347.705 87.313,347.675 87.657,347.643 88.001,347.612 88.345,347.580 88.689,347.548 89.033,347.515 89.377,347.482 89.721,347.448 90.065,347.414 90.409,347.379 90.754,347.344 91.098,347.309 91.442,347.273 91.786,347.237 92.130,347.200 92.474,347.163 92.818,347.125 93.162,347.087 93.506,347.049 93.850,347.010 94.195,346.970 94.539,346.931 94.883,346.890 95.227,346.850 95.571,346.808 95.915,346.767 96.259,346.725 96.603,346.682 96.947,346.639 97.292,346.595 97.636,346.552 97.980,346.507 98.324,346.462 98.668,346.417 99.012,346.371 99.356,346.325 99.700,346.278 100.044,346.231 100.388,346.184 100.733,346.135 101.077,346.087 101.421,346.038 101.765,345.988 102.109,345.939 102.453,345.888 102.797,345.837 103.141,345.786 103.485,345.734 103.829,345.682 104.174,345.629 104.518,345.576 104.862,345.522 105.206,345.468 105.550,345.413 105.894,345.358 106.238,345.303 106.582,345.247 106.926,345.190 107.270,345.133 107.615,345.076 107.959,345.018 108.303,344.959 108.647,344.900 108.991,344.841 109.335,344.781 109.679,344.721 110.023,344.660 110.367,344.599 110.711,344.537 111.056,344.475 111.400,344.412 111.744,344.349 112.088,344.285 112.432,344.221 112.776,344.156 113.120,344.091 113.464,344.025 113.808,343.959 114.152,343.892 114.497,343.825 114.841,343.757 115.185,343.689 115.529,343.621 115.873,343.551 116.217,343.482 116.561,343.412 116.905,343.341 117.249,343.270 117.593,343.198 117.938,343.126 118.282,343.054 118.626,342.981 118.970,342.907 119.314,342.833 119.658,342.758 120.002,342.683 120.346,342.608 120.690,342.532 121.034,342.455 121.379,342.378 121.723,342.301 122.067,342.222 122.411,342.144 122.755,342.065 123.099,341.985 123.443,341.905 123.787,341.825 124.131,341.743 124.475,341.662 124.820,341.580 125.164,341.497 125.508,341.414 125.852,341.330 126.196,341.246 126.540,341.162 126.884,341.076 127.228,340.991 127.572,340.905 127.916,340.818 128.261,340.731 128.605,340.643 128.949,340.555 129.293,340.466 129.637,340.377 129.981,340.287 130.325,340.197 130.669,340.106 131.013,340.015 131.357,339.923 131.701,339.830 132.046,339.738 132.390,339.644 132.734,339.550 133.078,339.456 133.422,339.361 133.766,339.266 134.110,339.170 134.454,339.073 134.798,338.976 135.142,338.879 135.487,338.780 135.831,338.682 136.175,338.583 136.519,338.483 136.863,338.383 137.207,338.282 137.551,338.181 137.895,338.079 138.239,337.977 138.583,337.874 138.928,337.771 139.272,337.667 139.616,337.563 139.960,337.458 140.304,337.353 140.648,337.247 140.992,337.140 141.336,337.033 141.680,336.926 142.025,336.818 142.369,336.709 142.713,336.600 143.057,336.490 143.401,336.380 143.745,336.270 144.089,336.158 144.433,336.047 144.777,335.934 145.121,335.821 145.466,335.708 145.810,335.594 146.154,335.480 146.498,335.365 146.842,335.249 147.186,335.133 147.530,335.017 147.874,334.899 148.218,334.782 148.562,334.664 148.907,334.545 149.251,334.426 149.595,334.306 149.939,334.185 150.283,334.064 150.627,333.943 150.971,333.821 151.315,333.699 151.659,333.575 152.003,333.452 152.347,333.328 152.692,333.203 153.036,333.078 153.380,332.952 153.724,332.826 154.068,332.699 154.412,332.571 154.756,332.443 155.100,332.315 155.444,332.186 155.789,332.056 156.133,331.926 156.477,331.795 156.821,331.664 157.165,331.532 157.509,331.400 157.853,331.267 158.197,331.134 158.541,331.000 158.885,330.865 159.229,330.730 159.574,330.595 159.918,330.458 160.262,330.322 160.606,330.184 160.950,330.047 161.294,329.908 161.638,329.769 161.982,329.630 162.326,329.490 162.671,329.349 163.015,329.208 163.359,329.066 163.703,328.924 164.047,328.781 164.391,328.638 164.735,328.494 165.079,328.349 165.423,328.204 165.767,328.059 166.112,327.913 166.456,327.766 166.800,327.619 167.144,327.471 167.488,327.322 167.832,327.173 168.176,327.024 168.520,326.874 168.864,326.723 169.208,326.572 169.553,326.420 169.897,326.268 170.241,326.115 170.585,325.962 170.929,325.808 171.273,325.653 171.617,325.498 171.961,325.342 172.305,325.186 172.649,325.029 172.994,324.872 173.338,324.714 173.682,324.555 174.026,324.396 174.370,324.237 174.714,324.076 175.058,323.916 175.402,323.754 175.746,323.592 176.090,323.430 176.435,323.267 176.779,323.103 177.123,322.939 177.467,322.774 177.811,322.609 178.155,322.443 178.499,322.277 178.843,322.110 179.187,321.942 179.531,321.774 179.876,321.605 180.220,321.436 180.564,321.266 180.908,321.095 181.252,320.924 181.596,320.753 181.940,320.581 182.284,320.408 182.628,320.234 182.972,320.061 183.316,319.886 183.661,319.711 184.005,319.535 184.349,319.359 184.693,319.182 185.037,319.005 185.381,318.827 185.725,318.649 186.069,318.470 186.413,318.290 186.758,318.110 187.102,317.929 187.446,317.748 187.790,317.566 188.134,317.383 188.478,317.200 188.822,317.016 189.166,316.832 189.510,316.647 189.854,316.462 190.198,316.276 190.543,316.089 190.887,315.902 191.231,315.714 191.575,315.526 191.919,315.337 192.263,315.147 192.607,314.957 192.951,314.767 193.295,314.575 193.640,314.383 193.984,314.191 194.328,313.998 194.672,313.804 195.016,313.610 195.360,313.415 195.704,313.220 196.048,313.024 196.392,312.828 196.736,312.631 197.081,312.433 197.425,312.235 197.769,312.036 198.113,311.836 198.457,311.636 198.801,311.436 199.145,311.234 199.489,311.033 199.833,310.830 200.177,310.627 200.522,310.424 200.866,310.219 201.210,310.015 201.554,309.809 201.898,309.603 202.242,309.397 202.586,309.190 202.930,308.982 203.274,308.774 203.618,308.565 203.962,308.355 204.307,308.145 204.651,307.935 204.995,307.723 205.339,307.512 205.683,307.299 206.027,307.086 206.371,306.873 206.715,306.658 207.059,306.443 207.404,306.228 207.748,306.012 208.092,305.795 208.436,305.578 208.780,305.360 209.124,305.142 209.468,304.923 209.812,304.703 210.156,304.483 210.500,304.263 210.845,304.041 211.189,303.819 211.533,303.597 211.877,303.373 212.221,303.150 212.565,302.925 212.909,302.700 213.253,302.475 213.597,302.249 213.941,302.022 214.286,301.794 214.630,301.566 214.974,301.338 215.318,301.109 215.662,300.879 216.006,300.649 216.350,300.418 216.694,300.186 217.038,299.954 217.382,299.721 217.727,299.488 218.071,299.254 218.415,299.019 218.759,298.784 219.103,298.548 219.447,298.312 219.791,298.075 220.135,297.837 220.479,297.599 220.823,297.360 221.168,297.121 221.512,296.881 221.856,296.640 222.200,296.399 222.544,296.157 222.888,295.914 223.232,295.671 223.576,295.428 223.920,295.183 224.264,294.939 224.609,294.693 224.953,294.447 225.297,294.200 225.641,293.953 225.985,293.705 226.329,293.457 226.673,293.207 227.017,292.958 227.361,292.707 227.705,292.456 228.049,292.205 228.394,291.952 228.738,291.700 229.082,291.446 229.426,291.192 229.770,290.938 230.114,290.682 230.458,290.426 230.802,290.170 231.146,289.913 231.491,289.655 231.835,289.397 232.179,289.138 232.523,288.878 232.867,288.618 233.211,288.358 233.555,288.096 233.899,287.834 234.243,287.572 234.587,287.308 234.932,287.044 235.276,286.780 235.620,286.515 235.964,286.249 236.308,285.983 236.652,285.716 236.996,285.448 237.340,285.180 237.684,284.912 238.028,284.642 238.373,284.372 238.717,284.101 239.061,283.830 239.405,283.558 239.749,283.286 240.093,283.013 240.437,282.739 240.781,282.465 241.125,282.190 241.469,281.914 241.813,281.638 242.158,281.361 242.502,281.084 242.846,280.806 243.190,280.527 243.534,280.248 243.878,279.968 244.222,279.687 244.566,279.406 244.910,279.124 245.254,278.842 245.599,278.559 245.943,278.275 246.287,277.991 246.631,277.706 246.975,277.420 247.319,277.134 247.663,276.848 248.007,276.560 248.351,276.272 248.695,275.983 249.040,275.694 249.384,275.404 249.728,275.114 250.072,274.823 250.416,274.531 250.760,274.238 251.104,273.945 251.448,273.652 251.792,273.357 252.136,273.063 252.481,272.767 252.825,272.471 253.169,272.174 253.513,271.877 253.857,271.579 254.201,271.280 254.545,270.981 254.889,270.681 255.233,270.380 255.578,270.079 255.922,269.777 256.266,269.475 256.610,269.172 256.954,268.868 257.298,268.564 257.642,268.259 257.986,267.953 258.330,267.647 258.674,267.340 259.019,267.033 259.363,266.724 259.707,266.416 260.051,266.106 260.395,265.796 260.739,265.486 261.083,265.174 261.427,264.862 261.771,264.550 262.115,264.237 262.459,263.923 262.804,263.608 263.148,263.293 263.492,262.978 263.836,262.661 264.180,262.344 264.524,262.027 264.868,261.708 265.212,261.390 265.556,261.070 265.901,260.750 266.245,260.429 266.589,260.108 266.933,259.786 267.277,259.463 267.621,259.140 267.965,258.816 268.309,258.491 268.653,258.166 268.997,257.840 269.341,257.513 269.686,257.186 270.030,256.858 270.374,256.530 270.718,256.201 271.062,255.871 271.406,255.541 271.750,255.210 272.094,254.878 272.438,254.546 272.783,254.213 273.127,253.879 273.471,253.545 273.815,253.210 274.159,252.875 274.503,252.539 274.847,252.202 275.191,251.865 275.535,251.527 275.879,251.188 276.224,250.849 276.568,250.509 276.912,250.168 277.256,249.827 277.600,249.485 277.944,249.143 278.288,248.799 278.632,248.456 278.976,248.111 279.320,247.766 279.664,247.420 280.009,247.074 280.353,246.727 280.697,246.379 281.041,246.031 281.385,245.682 281.729,245.332 282.073,244.982 282.417,244.631 282.761,244.280 283.106,243.927 283.450,243.575 283.794,243.221 284.138,242.867 284.482,242.512 284.826,242.157 285.170,241.801 285.514,241.444 285.858,241.087 286.202,240.729 286.547,240.370 286.891,240.011 287.235,239.651 287.579,239.290 287.923,238.929 288.267,238.567 288.611,238.204 288.955,237.841 289.299,237.477 289.643,237.113 289.988,236.748 290.332,236.382 290.676,236.015 291.020,235.648 291.364,235.281 291.708,234.912 292.052,234.543 292.396,234.173 292.740,233.803 293.084,233.432 293.429,233.060 293.773,232.688 294.117,232.315 294.461,231.942 294.805,231.567 295.149,231.192 295.493,230.817 295.837,230.441 296.181,230.064 296.525,229.686 296.870,229.308 297.214,228.929 297.558,228.550 297.902,228.170 298.246,227.789 298.590,227.407 298.934,227.025 299.278,226.643 299.622,226.259 299.966,225.875 300.311,225.490 300.655,225.105 300.999,224.719 301.343,224.332 301.687,223.945 302.031,223.557 302.375,223.168 302.719,222.779 303.063,222.389 303.407,221.998 303.751,221.607 304.096,221.215 304.440,220.823 304.784,220.429 305.128,220.035 305.472,219.641 305.816,219.246 306.160,218.850 306.504,218.453 306.848,218.056 307.192,217.658 307.537,217.260 307.881,216.860 308.225,216.461 308.569,216.060 308.913,215.659 309.257,215.257 309.601,214.855 309.945,214.452 310.289,214.048 310.634,213.643 310.978,213.238 311.322,212.832 311.666,212.426 312.010,212.019 312.354,211.611 312.698,211.203 313.042,210.794 313.386,210.384 313.730,209.973 314.075,209.562 314.419,209.151 314.763,208.738 315.107,208.325 315.451,207.911 315.795,207.497 316.139,207.082 316.483,206.666 316.827,206.250 317.171,205.833 317.516,205.415 317.860,204.997 318.204,204.578 318.548,204.158 318.892,203.738 319.236,203.317 319.580,202.895 319.924,202.472 320.268,202.049 320.612,201.626 320.957,201.201 321.301,200.776 321.645,200.351 321.989,199.924 322.333,199.497 322.677,199.070 323.021,198.641 323.365,198.212 323.709,197.782 324.053,197.352 324.398,196.921 324.742,196.489 325.086,196.057 325.430,195.624 325.774,195.190 326.118,194.756 326.462,194.321 326.806,193.885 327.150,193.449 327.494,193.012 327.839,192.574 328.183,192.136 328.527,191.697 328.871,191.257 329.215,190.816 329.559,190.375 329.903,189.934 330.247,189.491 330.591,189.048 330.935,188.604 331.279,188.160 331.624,187.715 331.968,187.269 332.312,186.823 332.656,186.376 333.000,185.928 333.344,185.479 333.688,185.030 334.032,184.580 334.376,184.130 334.720,183.679 335.065,183.227 335.409,182.774 335.753,182.321 336.097,181.867 336.441,181.413 336.785,180.958 337.129,180.502 337.473,180.045 337.817,179.588 338.161,179.130 338.506,178.672 338.850,178.212 339.194,177.753 339.538,177.292 339.882,176.831 340.226,176.369 340.570,175.906 340.914,175.443 341.258,174.979 341.603,174.514 341.947,174.049 342.291,173.583 342.635,173.116 342.979,172.649 343.323,172.181 343.667,171.712 344.011,171.243 344.355,170.773 344.699,170.302 345.043,169.831 345.388,169.359 345.732,168.886 346.076,168.412 346.420,167.938 346.764,167.463 347.108,166.988 347.452,166.512 347.796,166.035 348.140,165.557 348.484,165.079 348.829,164.600 349.173,164.121 349.517,163.641 349.861,163.160 350.205,162.678 350.549,162.196 350.893,161.713 351.237,161.229 351.581,160.745 351.925,160.260 352.270,159.774 352.614,159.288 352.958,158.801 353.302,158.313 353.646,157.825 353.990,157.336 354.334,156.846 354.678,156.355 355.022,155.864 355.367,155.372 355.711,154.880 356.055,154.387 356.399,153.893 356.743,153.398 357.087,152.903 357.431,152.407 357.775,151.911 358.119,151.413 358.463,150.915 358.808,150.417 359.152,149.917 359.496,149.417 359.840,148.917 360.184,148.415 360.528,147.913 360.872,147.410 361.216,146.907 361.560,146.403 361.904,145.898 362.249,145.393 362.593,144.886 362.937,144.379 363.281,143.872 363.625,143.364 363.969,142.855 364.313,142.345 364.657,141.835 365.001,141.324 365.345,140.812 365.690,140.300 366.034,139.787 366.378,139.273 366.722,138.759 367.066,138.243 367.410,137.728 367.754,137.211 368.098,136.694 368.442,136.176 368.786,135.658 369.131,135.138 369.475,134.618 369.819,134.098 370.163,133.576 370.507,133.054 370.851,132.532 371.195,132.008 371.539,131.484 371.883,130.959 372.227,130.434 372.572,129.908 372.916,129.381 373.260,128.854 373.604,128.325 373.948,127.796 374.292,127.267 374.636,126.736 374.980,126.206 375.324,125.674 375.668,125.141 376.013,124.608 376.357,124.075 376.701,123.540 377.045,123.005 377.389,122.469 377.733,121.933 378.077,121.396 378.421,120.858 378.765,120.319 379.109,119.780 379.454,119.240 379.798,118.699 380.142,118.158 380.486,117.616 380.830,117.073 381.174,116.529 381.518,115.985 381.862,115.440 382.206,114.895 382.550,114.349 382.894,113.802 383.239,113.254 383.583,112.706 383.927,112.157 384.271,111.607 384.615,111.057 384.959,110.506 385.303,109.954 385.647,109.401 385.991,108.848 386.336,108.294 386.680,107.740 387.024,107.184 387.368,106.628 387.712,106.072 388.056,105.514 388.400,104.956 388.744,104.398 389.088,103.838 389.432,103.278 389.776,102.717 390.121,102.156 390.465,101.593 390.809,101.030 391.153,100.467 391.497,99.902 391.841,99.337 392.185,98.772 392.529,98.205 392.873,97.638 393.217,97.070 393.562,96.502 393.906,95.932 394.250,95.363 394.594,94.792 394.938,94.221 395.282,93.649 395.626,93.076 395.970,92.502 396.314,91.928 396.659,91.353 397.003,90.778 397.347,90.202 397.691,89.625 398.035,89.047 398.379,88.469 398.723,87.890 399.067,87.310 399.411,86.729 399.755,86.148 400.100,85.566 400.444,84.984 400.788,84.401 401.132,83.817 401.476,83.232 401.820,82.647 "
     transform="translate(-27.49025,-10.31112)" />
  <g
     id="g2085"
     style="stroke-width:1.00000001;stroke-miterlimit:4;stroke-dasharray:3.00000002,3.00000002;stroke-dashoffset:6.00000003"
     transform="translate(-27.49025,-10.31112)" />
  <polyline
     style="fill:none;stroke:red;stroke-width:1.50000001;stroke-miterlimit:4;stroke-dasharray:none"
     id="polyline2089"
     points="57.720,348.880 58.064,348.859 58.408,348.839 58.752,348.818 59.096,348.798 59.441,348.777 59.785,348.756 60.129,348.736 60.473,348.715 60.817,348.695 61.161,348.674 61.505,348.653 61.849,348.633 62.193,348.612 62.537,348.592 62.882,348.571 63.226,348.550 63.570,348.530 63.914,348.509 64.258,348.488 64.602,348.468 64.946,348.447 65.290,348.427 65.634,348.406 65.978,348.385 66.323,348.365 66.667,348.344 67.011,348.324 67.355,348.303 67.699,348.282 68.043,348.262 68.387,348.241 68.731,348.221 69.075,348.200 69.419,348.179 69.764,348.159 70.108,348.138 70.452,348.118 70.796,348.097 71.140,348.076 71.484,348.056 71.828,348.035 72.172,348.014 72.516,347.992 72.860,347.970 73.204,347.948 73.549,347.925 73.893,347.903 74.237,347.879 74.581,347.856 74.925,347.832 75.269,347.808 75.613,347.784 75.957,347.759 76.301,347.734 76.645,347.708 76.990,347.683 77.334,347.657 77.678,347.630 78.022,347.603 78.366,347.576 78.710,347.549 79.054,347.521 79.398,347.493 79.742,347.465 80.087,347.436 80.431,347.407 80.775,347.378 81.119,347.348 81.463,347.318 81.807,347.288 82.151,347.257 82.495,347.226 82.839,347.194 83.183,347.163 83.528,347.130 83.872,347.098 84.216,347.065 84.560,347.032 84.904,346.998 85.248,346.965 85.592,346.930 85.936,346.896 86.280,346.861 86.624,346.826 86.969,346.790 87.313,346.754 87.657,346.718 88.001,346.681 88.345,346.644 88.689,346.606 89.033,346.568 89.377,346.530 89.721,346.492 90.065,346.453 90.409,346.414 90.754,346.374 91.098,346.334 91.442,346.293 91.786,346.253 92.130,346.212 92.474,346.170 92.818,346.128 93.162,346.086 93.506,346.043 93.850,346.000 94.195,345.957 94.539,345.913 94.883,345.869 95.227,345.825 95.571,345.780 95.915,345.734 96.259,345.689 96.603,345.643 96.947,345.596 97.292,345.549 97.636,345.502 97.980,345.454 98.324,345.407 98.668,345.358 99.012,345.309 99.356,345.260 99.700,345.211 100.044,345.161 100.388,345.110 100.733,345.060 101.077,345.008 101.421,344.957 101.765,344.905 102.109,344.853 102.453,344.800 102.797,344.747 103.141,344.693 103.485,344.639 103.829,344.585 104.174,344.530 104.518,344.475 104.862,344.420 105.206,344.364 105.550,344.307 105.894,344.250 106.238,344.193 106.582,344.136 106.926,344.078 107.270,344.019 107.615,343.960 107.959,343.901 108.303,343.842 108.647,343.781 108.991,343.721 109.335,343.660 109.679,343.599 110.023,343.537 110.367,343.475 110.711,343.412 111.056,343.349 111.400,343.286 111.744,343.222 112.088,343.158 112.432,343.093 112.776,343.028 113.120,342.962 113.464,342.896 113.808,342.830 114.152,342.763 114.497,342.696 114.841,342.628 115.185,342.560 115.529,342.492 115.873,342.423 116.217,342.353 116.561,342.283 116.905,342.213 117.249,342.142 117.593,342.071 117.938,342.000 118.282,341.928 118.626,341.855 118.970,341.782 119.314,341.709 119.658,341.635 120.002,341.561 120.346,341.486 120.690,341.411 121.034,341.336 121.379,341.260 121.723,341.183 122.067,341.107 122.411,341.029 122.755,340.951 123.099,340.873 123.443,340.795 123.787,340.716 124.131,340.636 124.475,340.556 124.820,340.475 125.164,340.395 125.508,340.313 125.852,340.231 126.196,340.149 126.540,340.066 126.884,339.983 127.228,339.900 127.572,339.816 127.916,339.731 128.261,339.646 128.605,339.560 128.949,339.475 129.293,339.388 129.637,339.301 129.981,339.214 130.325,339.126 130.669,339.038 131.013,338.949 131.357,338.860 131.701,338.771 132.046,338.680 132.390,338.590 132.734,338.499 133.078,338.407 133.422,338.315 133.766,338.223 134.110,338.130 134.454,338.037 134.798,337.943 135.142,337.848 135.487,337.754 135.831,337.658 136.175,337.563 136.519,337.466 136.863,337.370 137.207,337.273 137.551,337.175 137.895,337.077 138.239,336.978 138.583,336.879 138.928,336.780 139.272,336.680 139.616,336.579 139.960,336.478 140.304,336.377 140.648,336.275 140.992,336.172 141.336,336.069 141.680,335.966 142.025,335.862 142.369,335.758 142.713,335.653 143.057,335.547 143.401,335.441 143.745,335.335 144.089,335.228 144.433,335.121 144.777,335.013 145.121,334.905 145.466,334.796 145.810,334.687 146.154,334.577 146.498,334.467 146.842,334.356 147.186,334.245 147.530,334.133 147.874,334.021 148.218,333.908 148.562,333.795 148.907,333.681 149.251,333.567 149.595,333.452 149.939,333.337 150.283,333.221 150.627,333.105 150.971,332.988 151.315,332.871 151.659,332.753 152.003,332.635 152.347,332.516 152.692,332.397 153.036,332.277 153.380,332.157 153.724,332.036 154.068,331.915 154.412,331.793 154.756,331.670 155.100,331.548 155.444,331.424 155.789,331.301 156.133,331.176 156.477,331.051 156.821,330.926 157.165,330.800 157.509,330.674 157.853,330.547 158.197,330.419 158.541,330.291 158.885,330.163 159.229,330.034 159.574,329.904 159.918,329.774 160.262,329.644 160.606,329.513 160.950,329.381 161.294,329.249 161.638,329.117 161.982,328.984 162.326,328.850 162.671,328.716 163.015,328.581 163.359,328.446 163.703,328.310 164.047,328.174 164.391,328.037 164.735,327.900 165.079,327.762 165.423,327.624 165.767,327.485 166.112,327.345 166.456,327.205 166.800,327.065 167.144,326.924 167.488,326.782 167.832,326.640 168.176,326.498 168.520,326.354 168.864,326.211 169.208,326.067 169.553,325.922 169.897,325.777 170.241,325.631 170.585,325.484 170.929,325.338 171.273,325.190 171.617,325.042 171.961,324.894 172.305,324.745 172.649,324.595 172.994,324.445 173.338,324.294 173.682,324.143 174.026,323.992 174.370,323.839 174.714,323.686 175.058,323.533 175.402,323.379 175.746,323.225 176.090,323.070 176.435,322.914 176.779,322.758 177.123,322.602 177.467,322.444 177.811,322.287 178.155,322.128 178.499,321.970 178.843,321.810 179.187,321.650 179.531,321.490 179.876,321.329 180.220,321.167 180.564,321.005 180.908,320.843 181.252,320.679 181.596,320.516 181.940,320.351 182.284,320.187 182.628,320.021 182.972,319.855 183.316,319.689 183.661,319.522 184.005,319.354 184.349,319.186 184.693,319.017 185.037,318.848 185.381,318.678 185.725,318.507 186.069,318.336 186.413,318.165 186.758,317.993 187.102,317.820 187.446,317.647 187.790,317.473 188.134,317.299 188.478,317.124 188.822,316.948 189.166,316.772 189.510,316.595 189.854,316.418 190.198,316.241 190.543,316.062 190.887,315.883 191.231,315.704 191.575,315.524 191.919,315.343 192.263,315.162 192.607,314.980 192.951,314.798 193.295,314.615 193.640,314.432 193.984,314.248 194.328,314.063 194.672,313.878 195.016,313.692 195.360,313.506 195.704,313.319 196.048,313.132 196.392,312.944 196.736,312.755 197.081,312.566 197.425,312.376 197.769,312.186 198.113,311.995 198.457,311.803 198.801,311.611 199.145,311.419 199.489,311.225 199.833,311.032 200.177,310.837 200.522,310.642 200.866,310.447 201.210,310.251 201.554,310.054 201.898,309.857 202.242,309.659 202.586,309.460 202.930,309.261 203.274,309.062 203.618,308.861 203.962,308.661 204.307,308.459 204.651,308.257 204.995,308.055 205.339,307.852 205.683,307.648 206.027,307.443 206.371,307.239 206.715,307.033 207.059,306.827 207.404,306.620 207.748,306.413 208.092,306.205 208.436,305.997 208.780,305.788 209.124,305.578 209.468,305.368 209.812,305.157 210.156,304.945 210.500,304.733 210.845,304.521 211.189,304.307 211.533,304.094 211.877,303.879 212.221,303.664 212.565,303.449 212.909,303.232 213.253,303.016 213.597,302.798 213.941,302.580 214.286,302.362 214.630,302.142 214.974,301.923 215.318,301.702 215.662,301.481 216.006,301.260 216.350,301.037 216.694,300.814 217.038,300.591 217.382,300.367 217.727,300.142 218.071,299.917 218.415,299.691 218.759,299.465 219.103,299.238 219.447,299.010 219.791,298.782 220.135,298.553 220.479,298.323 220.823,298.093 221.168,297.863 221.512,297.631 221.856,297.399 222.200,297.167 222.544,296.934 222.888,296.700 223.232,296.465 223.576,296.230 223.920,295.995 224.264,295.759 224.609,295.522 224.953,295.284 225.297,295.046 225.641,294.808 225.985,294.568 226.329,294.328 226.673,294.088 227.017,293.847 227.361,293.605 227.705,293.362 228.049,293.119 228.394,292.876 228.738,292.632 229.082,292.387 229.426,292.141 229.770,291.895 230.114,291.648 230.458,291.401 230.802,291.153 231.146,290.904 231.491,290.655 231.835,290.405 232.179,290.155 232.523,289.904 232.867,289.652 233.211,289.400 233.555,289.147 233.899,288.893 234.243,288.639 234.587,288.384 234.932,288.129 235.276,287.873 235.620,287.616 235.964,287.358 236.308,287.100 236.652,286.842 236.996,286.583 237.340,286.323 237.684,286.062 238.028,285.801 238.373,285.539 238.717,285.277 239.061,285.014 239.405,284.750 239.749,284.486 240.093,284.221 240.437,283.955 240.781,283.689 241.125,283.422 241.469,283.155 241.813,282.886 242.158,282.618 242.502,282.348 242.846,282.078 243.190,281.808 243.534,281.536 243.878,281.264 244.222,280.992 244.566,280.718 244.910,280.445 245.254,280.170 245.599,279.895 245.943,279.619 246.287,279.343 246.631,279.066 246.975,278.788 247.319,278.509 247.663,278.230 248.007,277.951 248.351,277.670 248.695,277.390 249.040,277.108 249.384,276.826 249.728,276.543 250.072,276.259 250.416,275.975 250.760,275.690 251.104,275.405 251.448,275.119 251.792,274.832 252.136,274.544 252.481,274.256 252.825,273.968 253.169,273.678 253.513,273.388 253.857,273.098 254.201,272.806 254.545,272.514 254.889,272.222 255.233,271.928 255.578,271.634 255.922,271.340 256.266,271.045 256.610,270.749 256.954,270.452 257.298,270.155 257.642,269.857 257.986,269.558 258.330,269.259 258.674,268.959 259.019,268.659 259.363,268.358 259.707,268.056 260.051,267.753 260.395,267.450 260.739,267.147 261.083,266.842 261.427,266.537 261.771,266.231 262.115,265.925 262.459,265.618 262.804,265.310 263.148,265.001 263.492,264.692 263.836,264.383 264.180,264.072 264.524,263.761 264.868,263.449 265.212,263.137 265.556,262.824 265.901,262.510 266.245,262.196 266.589,261.881 266.933,261.565 267.277,261.249 267.621,260.931 267.965,260.614 268.309,260.295 268.653,259.976 268.997,259.657 269.341,259.336 269.686,259.015 270.030,258.693 270.374,258.371 270.718,258.048 271.062,257.724 271.406,257.399 271.750,257.074 272.094,256.749 272.438,256.422 272.783,256.095 273.127,255.767 273.471,255.439 273.815,255.110 274.159,254.780 274.503,254.449 274.847,254.118 275.191,253.786 275.535,253.454 275.879,253.120 276.224,252.786 276.568,252.452 276.912,252.117 277.256,251.781 277.600,251.444 277.944,251.107 278.288,250.769 278.632,250.430 278.976,250.091 279.320,249.751 279.664,249.410 280.009,249.069 280.353,248.727 280.697,248.384 281.041,248.040 281.385,247.696 281.729,247.352 282.073,247.006 282.417,246.660 282.761,246.313 283.106,245.966 283.450,245.617 283.794,245.268 284.138,244.919 284.482,244.568 284.826,244.218 285.170,243.866 285.514,243.514 285.858,243.160 286.202,242.807 286.547,242.452 286.891,242.097 287.235,241.741 287.579,241.385 287.923,241.028 288.267,240.670 288.611,240.311 288.955,239.952 289.299,239.592 289.643,239.232 289.988,238.870 290.332,238.508 290.676,238.145 291.020,237.782 291.364,237.418 291.708,237.053 292.052,236.688 292.396,236.321 292.740,235.955 293.084,235.587 293.429,235.219 293.773,234.850 294.117,234.480 294.461,234.110 294.805,233.739 295.149,233.367 295.493,232.994 295.837,232.621 296.181,232.247 296.525,231.873 296.870,231.497 297.214,231.121 297.558,230.745 297.902,230.367 298.246,229.989 298.590,229.611 298.934,229.231 299.278,228.851 299.622,228.470 299.966,228.088 300.311,227.706 300.655,227.323 300.999,226.939 301.343,226.555 301.687,226.170 302.031,225.784 302.375,225.397 302.719,225.010 303.063,224.622 303.407,224.234 303.751,223.844 304.096,223.454 304.440,223.063 304.784,222.672 305.128,222.280 305.472,221.887 305.816,221.493 306.160,221.099 306.504,220.704 306.848,220.308 307.192,219.912 307.537,219.514 307.881,219.116 308.225,218.718 308.569,218.319 308.913,217.918 309.257,217.518 309.601,217.116 309.945,216.714 310.289,216.311 310.634,215.908 310.978,215.503 311.322,215.098 311.666,214.692 312.010,214.286 312.354,213.879 312.698,213.471 313.042,213.062 313.386,212.653 313.730,212.243 314.075,211.832 314.419,211.421 314.763,211.008 315.107,210.595 315.451,210.182 315.795,209.767 316.139,209.352 316.483,208.936 316.827,208.520 317.171,208.103 317.516,207.685 317.860,207.266 318.204,206.846 318.548,206.426 318.892,206.005 319.236,205.584 319.580,205.161 319.924,204.738 320.268,204.315 320.612,203.890 320.957,203.465 321.301,203.039 321.645,202.612 321.989,202.185 322.333,201.757 322.677,201.328 323.021,200.898 323.365,200.468 323.709,200.037 324.053,199.605 324.398,199.172 324.742,198.739 325.086,198.305 325.430,197.870 325.774,197.435 326.118,196.999 326.462,196.562 326.806,196.124 327.150,195.686 327.494,195.247 327.839,194.807 328.183,194.366 328.527,193.925 328.871,193.483 329.215,193.040 329.559,192.597 329.903,192.152 330.247,191.707 330.591,191.262 330.935,190.815 331.279,190.368 331.624,189.920 331.968,189.471 332.312,189.022 332.656,188.572 333.000,188.121 333.344,187.669 333.688,187.217 334.032,186.764 334.376,186.310 334.720,185.856 335.065,185.400 335.409,184.944 335.753,184.487 336.097,184.030 336.441,183.572 336.785,183.112 337.129,182.653 337.473,182.192 337.817,181.731 338.161,181.269 338.506,180.806 338.850,180.343 339.194,179.878 339.538,179.413 339.882,178.948 340.226,178.481 340.570,178.014 340.914,177.546 341.258,177.077 341.603,176.608 341.947,176.138 342.291,175.667 342.635,175.195 342.979,174.723 343.323,174.249 343.667,173.775 344.011,173.301 344.355,172.825 344.699,172.349 345.043,171.872 345.388,171.394 345.732,170.916 346.076,170.437 346.420,169.957 346.764,169.476 347.108,168.995 347.452,168.512 347.796,168.029 348.140,167.546 348.484,167.061 348.829,166.576 349.173,166.090 349.517,165.603 349.861,165.116 350.205,164.628 350.549,164.139 350.893,163.649 351.237,163.158 351.581,162.667 351.925,162.175 352.270,161.682 352.614,161.189 352.958,160.694 353.302,160.199 353.646,159.704 353.990,159.207 354.334,158.710 354.678,158.211 355.022,157.713 355.367,157.213 355.711,156.713 356.055,156.211 356.399,155.710 356.743,155.207 357.087,154.703 357.431,154.199 357.775,153.694 358.119,153.189 358.463,152.682 358.808,152.175 359.152,151.667 359.496,151.158 359.840,150.649 360.184,150.138 360.528,149.627 360.872,149.115 361.216,148.603 361.560,148.089 361.904,147.575 362.249,147.060 362.593,146.545 362.937,146.028 363.281,145.511 363.625,144.993 363.969,144.474 364.313,143.955 364.657,143.435 365.001,142.914 365.345,142.392 365.690,141.869 366.034,141.346 366.378,140.822 366.722,140.297 367.066,139.771 367.410,139.245 367.754,138.717 368.098,138.189 368.442,137.661 368.786,137.131 369.131,136.601 369.475,136.070 369.819,135.538 370.163,135.005 370.507,134.472 370.851,133.938 371.195,133.403 371.539,132.867 371.883,132.330 372.227,131.793 372.572,131.255 372.916,130.716 373.260,130.177 373.604,129.636 373.948,129.095 374.292,128.553 374.636,128.010 374.980,127.467 375.324,126.923 375.668,126.377 376.013,125.832 376.357,125.285 376.701,124.738 377.045,124.189 377.389,123.640 377.733,123.091 378.077,122.540 378.421,121.989 378.765,121.437 379.109,120.884 379.454,120.330 379.798,119.776 380.142,119.220 380.486,118.664 380.830,118.108 381.174,117.550 381.518,116.992 381.862,116.432 382.206,115.873 382.550,115.312 382.894,114.750 383.239,114.188 383.583,113.625 383.927,113.061 384.271,112.496 384.615,111.931 384.959,111.365 385.303,110.798 385.647,110.230 385.991,109.661 386.336,109.092 386.680,108.522 387.024,107.951 387.368,107.379 387.712,106.806 388.056,106.233 388.400,105.659 388.744,105.084 389.088,104.508 389.432,103.932 389.776,103.354 390.121,102.776 390.465,102.197 390.809,101.618 391.153,101.037 391.497,100.456 391.841,99.874 392.185,99.291 392.529,98.707 392.873,98.123 393.217,97.538 393.562,96.951 393.906,96.365 394.250,95.777 394.594,95.189 394.938,94.599 395.282,94.009 395.626,93.418 395.970,92.827 396.314,92.234 396.659,91.641 397.003,91.047 397.347,90.452 397.691,89.857 398.035,89.260 398.379,88.663 398.723,88.065 399.067,87.466 399.411,86.867 399.755,86.266 400.100,85.665 400.444,85.063 400.788,84.460 401.132,83.856 401.476,83.252 401.820,82.647 "
     transform="translate(-27.49025,-10.31112)" />
  <g
     id="g2091"
     style="stroke-width:1.50000001;stroke-miterlimit:4;stroke-dasharray:none"
     transform="translate(-27.49025,-10.31112)" />
  <polyline
     style="fill:none;stroke:blue;stroke-width:1.50000001;stroke-miterlimit:4;stroke-dasharray:none"
     id="polyline2095"
     points="58.236,215.763 58.580,215.763 58.924,215.763 59.268,215.763 59.613,215.763 59.957,215.763 60.301,215.763 60.645,215.763 60.989,215.763 61.333,215.763 61.677,215.763 62.021,215.763 62.365,215.763 62.709,215.763 63.054,215.763 63.398,215.763 63.742,215.763 64.086,215.763 64.430,215.763 64.774,215.763 65.118,215.763 65.462,215.763 65.806,215.763 66.150,215.763 66.495,215.763 66.839,215.763 67.183,215.763 67.527,215.763 67.871,215.763 68.215,215.763 68.559,215.763 68.903,215.763 69.247,215.763 69.591,215.763 69.936,215.763 70.280,215.763 70.624,215.763 70.968,215.763 71.312,215.763 71.656,214.228 72.000,211.492 72.344,209.625 72.688,207.795 73.032,206.002 73.377,204.244 73.721,202.522 74.065,200.833 74.409,199.176 74.753,197.551 75.097,195.957 75.441,194.393 75.785,192.858 76.129,191.352 76.473,189.873 76.818,188.420 77.162,186.994 77.506,185.593 77.850,184.217 78.194,182.865 78.538,181.536 78.882,180.230 79.226,178.946 79.570,177.684 79.914,176.443 80.259,175.223 80.603,174.023 80.947,172.842 81.291,171.681 81.635,170.538 81.979,169.413 82.323,168.306 82.667,167.217 83.011,166.144 83.355,165.088 83.700,164.049 84.044,163.025 84.388,162.016 84.732,161.023 85.076,160.044 85.420,159.080 85.764,158.130 86.108,157.194 86.452,156.271 86.796,155.361 87.141,154.465 87.485,153.581 87.829,152.709 88.173,151.850 88.517,151.003 88.861,150.167 89.205,149.343 89.549,148.529 89.893,147.727 90.237,146.936 90.582,146.155 90.926,145.384 91.270,144.623 91.614,143.873 91.958,143.132 92.302,142.400 92.646,141.678 92.990,140.965 93.334,140.261 93.678,139.566 94.023,138.880 94.367,138.202 94.711,137.533 95.055,136.871 95.399,136.218 95.743,135.572 96.087,134.935 96.431,134.305 96.775,133.682 97.119,133.067 97.464,132.459 97.808,131.858 98.152,131.264 98.496,130.677 98.840,130.096 99.184,129.523 99.528,128.955 99.872,128.394 100.216,127.840 100.560,127.291 100.905,126.749 101.249,126.213 101.593,125.682 101.937,125.158 102.281,124.639 102.625,124.125 102.969,123.617 103.313,123.115 103.657,122.618 104.001,122.126 104.346,121.639 104.690,121.157 105.034,120.680 105.378,120.209 105.722,119.742 106.066,119.280 106.410,118.822 106.754,118.370 107.098,117.921 107.442,117.478 107.787,117.038 108.131,116.603 108.475,116.173 108.819,115.746 109.163,115.324 109.507,114.906 109.851,114.492 110.195,114.082 110.539,113.676 110.883,113.273 111.228,112.875 111.572,112.480 111.916,112.089 112.260,111.702 112.604,111.318 112.948,110.938 113.292,110.562 113.636,110.188 113.980,109.819 114.324,109.452 114.669,109.089 115.013,108.729 115.357,108.373 115.701,108.020 116.045,107.669 116.389,107.322 116.733,106.978 117.077,106.637 117.421,106.299 117.765,105.964 118.110,105.632 118.454,105.303 118.798,104.976 119.142,104.653 119.486,104.332 119.830,104.013 120.174,103.698 120.518,103.385 120.862,103.075 121.206,102.767 121.551,102.462 121.895,102.160 122.239,101.860 122.583,101.562 122.927,101.267 123.271,100.974 123.615,100.684 123.959,100.396 124.303,100.110 124.647,99.827 124.992,99.546 125.336,99.267 125.680,98.990 126.024,98.715 126.368,98.443 126.712,98.173 127.056,97.905 127.400,97.639 127.744,97.375 128.088,97.113 128.433,96.853 128.777,96.595 129.121,96.339 129.465,96.085 129.809,95.833 130.153,95.582 130.497,95.334 130.841,95.088 131.185,94.843 131.529,94.600 131.874,94.359 132.218,94.120 132.562,93.882 132.906,93.647 133.250,93.413 133.594,93.180 133.938,92.950 134.282,92.721 134.626,92.493 134.970,92.267 135.315,92.043 135.659,91.821 136.003,91.600 136.347,91.380 136.691,91.163 137.035,90.946 137.379,90.731 137.723,90.518 138.067,90.306 138.411,90.096 138.756,89.887 139.100,89.679 139.444,89.473 139.788,89.269 140.132,89.065 140.476,88.863 140.820,88.663 141.164,88.464 141.508,88.266 141.852,88.069 142.197,87.874 142.541,87.680 142.885,87.487 143.229,87.296 143.573,87.106 143.917,86.917 144.261,86.729 144.605,86.543 144.949,86.358 145.293,86.174 145.638,85.991 145.982,85.809 146.326,85.629 146.670,85.449 147.014,85.271 147.358,85.094 147.702,84.918 148.046,84.743 148.390,84.569 148.734,84.397 149.079,84.225 149.423,84.055 149.767,83.885 150.111,83.717 150.455,83.549 150.799,83.383 151.143,83.218 151.487,83.053 151.831,82.890 152.175,82.728 152.520,82.566 152.864,82.406 153.208,82.246 153.552,82.088 153.896,81.930 154.240,81.774 154.584,81.618 154.928,81.463 155.272,81.310 155.616,81.157 155.961,81.005 156.305,80.854 156.649,80.703 156.993,80.554 157.337,80.406 157.681,80.258 158.025,80.111 158.369,79.965 158.713,79.820 159.057,79.676 159.402,79.532 159.746,79.390 160.090,79.248 160.434,79.107 160.778,78.967 161.122,78.827 161.466,78.689 161.810,78.551 162.154,78.414 162.498,78.277 162.843,78.142 163.187,78.007 163.531,77.873 163.875,77.740 164.219,77.607 164.563,77.475 164.907,77.344 165.251,77.213 165.595,77.084 165.939,76.955 166.284,76.826 166.628,76.699 166.972,76.572 167.316,76.445 167.660,76.320 168.004,76.195 168.348,76.070 168.692,75.947 169.036,75.824 169.380,75.702 169.725,75.580 170.069,75.459 170.413,75.338 170.757,75.219 171.101,75.099 171.445,74.981 171.789,74.863 172.133,74.746 172.477,74.629 172.821,74.513 173.166,74.397 173.510,74.282 173.854,74.168 174.198,74.054 174.542,73.941 174.886,73.828 175.230,73.716 175.574,73.605 175.918,73.494 176.262,73.384 176.607,73.274 176.951,73.164 177.295,73.056 177.639,72.948 177.983,72.840 178.327,72.733 178.671,72.626 179.015,72.520 179.359,72.414 179.703,72.309 180.048,72.205 180.392,72.101 180.736,71.997 181.080,71.894 181.424,71.792 181.768,71.690 182.112,71.588 182.456,71.487 182.800,71.387 183.144,71.287 183.489,71.187 183.833,71.088 184.177,70.989 184.521,70.891 184.865,70.793 185.209,70.696 185.553,70.599 185.897,70.503 186.241,70.407 186.585,70.311 186.930,70.216 187.274,70.122 187.618,70.028 187.962,69.934 188.306,69.841 188.650,69.748 188.994,69.655 189.338,69.563 189.682,69.472 190.026,69.380 190.371,69.290 190.715,69.199 191.059,69.109 191.403,69.020 191.747,68.931 192.091,68.842 192.435,68.754 192.779,68.666 193.123,68.578 193.467,68.491 193.812,68.404 194.156,68.318 194.500,68.232 194.844,68.146 195.188,68.061 195.532,67.976 195.876,67.892 196.220,67.807 196.564,67.724 196.908,67.640 197.253,67.557 197.597,67.475 197.941,67.392 198.285,67.310 198.629,67.229 198.973,67.147 199.317,67.066 199.661,66.986 200.005,66.906 200.349,66.826 200.694,66.746 201.038,66.667 201.382,66.588 201.726,66.510 202.070,66.431 202.414,66.354 202.758,66.276 203.102,66.199 203.446,66.122 203.790,66.045 204.135,65.969 204.479,65.893 204.823,65.817 205.167,65.742 205.511,65.667 205.855,65.592 206.199,65.518 206.543,65.444 206.887,65.370 207.231,65.297 207.576,65.223 207.920,65.151 208.264,65.078 208.608,65.006 208.952,64.934 209.296,64.862 209.640,64.791 209.984,64.719 210.328,64.649 210.672,64.578 211.017,64.508 211.361,64.438 211.705,64.368 212.049,64.299 212.393,64.229 212.737,64.160 213.081,64.092 213.425,64.023 213.769,63.955 214.113,63.888 214.458,63.820 214.802,63.753 215.146,63.686 215.490,63.619 215.834,63.552 216.178,63.486 216.522,63.420 216.866,63.354 217.210,63.289 217.554,63.224 217.899,63.159 218.243,63.094 218.587,63.029 218.931,62.965 219.275,62.901 219.619,62.838 219.963,62.774 220.307,62.711 220.651,62.648 220.995,62.585 221.340,62.522 221.684,62.460 222.028,62.398 222.372,62.336 222.716,62.274 223.060,62.213 223.404,62.152 223.748,62.091 224.092,62.030 224.436,61.970 224.781,61.910 225.125,61.850 225.469,61.790 225.813,61.730 226.157,61.671 226.501,61.612 226.845,61.553 227.189,61.494 227.533,61.435 227.877,61.377 228.222,61.319 228.566,61.261 228.910,61.203 229.254,61.146 229.598,61.089 229.942,61.032 230.286,60.975 230.630,60.918 230.974,60.862 231.318,60.806 231.663,60.750 232.007,60.694 232.351,60.638 232.695,60.583 233.039,60.527 233.383,60.472 233.727,60.417 234.071,60.363 234.415,60.308 234.759,60.254 235.104,60.200 235.448,60.146 235.792,60.092 236.136,60.039 236.480,59.986 236.824,59.932 237.168,59.879 237.512,59.827 237.856,59.774 238.200,59.722 238.545,59.669 238.889,59.617 239.233,59.566 239.577,59.514 239.921,59.462 240.265,59.411 240.609,59.360 240.953,59.309 241.297,59.258 241.641,59.207 241.986,59.157 242.330,59.107 242.674,59.056 243.018,59.006 243.362,58.957 243.706,58.907 244.050,58.858 244.394,58.808 244.738,58.759 245.082,58.710 245.427,58.661 245.771,58.613 246.115,58.564 246.459,58.516 246.803,58.468 247.147,58.420 247.491,58.372 247.835,58.324 248.179,58.277 248.523,58.229 248.868,58.182 249.212,58.135 249.556,58.088 249.900,58.041 250.244,57.995 250.588,57.948 250.932,57.902 251.276,57.856 251.620,57.810 251.964,57.764 252.309,57.718 252.653,57.673 252.997,57.627 253.341,57.582 253.685,57.537 254.029,57.492 254.373,57.447 254.717,57.402 255.061,57.358 255.405,57.313 255.750,57.269 256.094,57.225 256.438,57.181 256.782,57.137 257.126,57.093 257.470,57.050 257.814,57.006 258.158,56.963 258.502,56.920 258.846,56.877 259.191,56.834 259.535,56.791 259.879,56.748 260.223,56.706 260.567,56.664 260.911,56.621 261.255,56.579 261.599,56.537 261.943,56.495 262.287,56.454 262.632,56.412 262.976,56.371 263.320,56.329 263.664,56.288 264.008,56.247 264.352,56.206 264.696,56.165 265.040,56.125 265.384,56.084 265.728,56.044 266.073,56.003 266.417,55.963 266.761,55.923 267.105,55.883 267.449,55.843 267.793,55.803 268.137,55.764 268.481,55.724 268.825,55.685 269.169,55.646 269.514,55.606 269.858,55.567 270.202,55.528 270.546,55.490 270.890,55.451 271.234,55.412 271.578,55.374 271.922,55.336 272.266,55.297 272.610,55.259 272.955,55.221 273.299,55.183 273.643,55.146 273.987,55.108 274.331,55.070 274.675,55.033 275.019,54.996 275.363,54.958 275.707,54.921 276.051,54.884 276.396,54.847 276.740,54.811 277.084,54.774 277.428,54.737 277.772,54.701 278.116,54.664 278.460,54.628 278.804,54.592 279.148,54.556 279.492,54.520 279.837,54.484 280.181,54.448 280.525,54.413 280.869,54.377 281.213,54.342 281.557,54.306 281.901,54.271 282.245,54.236 282.589,54.201 282.933,54.166 283.278,54.131 283.622,54.096 283.966,54.062 284.310,54.027 284.654,53.993 284.998,53.958 285.342,53.924 285.686,53.890 286.030,53.856 286.374,53.822 286.719,53.788 287.063,53.754 287.407,53.720 287.751,53.687 288.095,53.653 288.439,53.620 288.783,53.586 289.127,53.553 289.471,53.520 289.815,53.487 290.160,53.454 290.504,53.421 290.848,53.388 291.192,53.356 291.536,53.323 291.880,53.290 292.224,53.258 292.568,53.226 292.912,53.193 293.256,53.161 293.601,53.129 293.945,53.097 294.289,53.065 294.633,53.033 294.977,53.002 295.321,52.970 295.665,52.938 296.009,52.907 296.353,52.875 296.697,52.844 297.042,52.813 297.386,52.782 297.730,52.751 298.074,52.720 298.418,52.689 298.762,52.658 299.106,52.627 299.450,52.597 299.794,52.566 300.138,52.535 300.483,52.505 300.827,52.475 301.171,52.444 301.515,52.414 301.859,52.384 302.203,52.354 302.547,52.324 302.891,52.294 303.235,52.265 303.579,52.235 303.924,52.205 304.268,52.176 304.612,52.146 304.956,52.117 305.300,52.087 305.644,52.058 305.988,52.029 306.332,52.000 306.676,51.971 307.020,51.942 307.365,51.913 307.709,51.884 308.053,51.855 308.397,51.827 308.741,51.798 309.085,51.770 309.429,51.741 309.773,51.713 310.117,51.685 310.461,51.656 310.806,51.628 311.150,51.600 311.494,51.572 311.838,51.544 312.182,51.516 312.526,51.489 312.870,51.461 313.214,51.433 313.558,51.406 313.902,51.378 314.247,51.351 314.591,51.323 314.935,51.296 315.279,51.269 315.623,51.241 315.967,51.214 316.311,51.187 316.655,51.160 316.999,51.133 317.343,51.106 317.688,51.080 318.032,51.053 318.376,51.026 318.720,51.000 319.064,50.973 319.408,50.947 319.752,50.920 320.096,50.894 320.440,50.868 320.784,50.842 321.129,50.815 321.473,50.789 321.817,50.763 322.161,50.737 322.505,50.712 322.849,50.686 323.193,50.660 323.537,50.634 323.881,50.609 324.225,50.583 324.570,50.558 324.914,50.532 325.258,50.507 325.602,50.481 325.946,50.456 326.290,50.431 326.634,50.406 326.978,50.381 327.322,50.356 327.666,50.331 328.011,50.306 328.355,50.281 328.699,50.256 329.043,50.232 329.387,50.207 329.731,50.182 330.075,50.158 330.419,50.133 330.763,50.109 331.107,50.084 331.452,50.060 331.796,50.036 332.140,50.012 332.484,49.987 332.828,49.963 333.172,49.939 333.516,49.915 333.860,49.891 334.204,49.868 334.548,49.844 334.893,49.820 335.237,49.796 335.581,49.773 335.925,49.749 336.269,49.726 336.613,49.702 336.957,49.679 337.301,49.655 337.645,49.632 337.989,49.609 338.334,49.585 338.678,49.562 339.022,49.539 339.366,49.516 339.710,49.493 340.054,49.470 340.398,49.447 340.742,49.424 341.086,49.402 341.430,49.379 341.775,49.356 342.119,49.334 342.463,49.311 342.807,49.288 343.151,49.266 343.495,49.243 343.839,49.221 344.183,49.199 344.527,49.176 344.871,49.154 345.216,49.132 345.560,49.110 345.904,49.088 346.248,49.066 346.592,49.044 346.936,49.022 347.280,49.000 347.624,48.978 347.968,48.956 348.312,48.935 348.657,48.913 349.001,48.891 349.345,48.870 349.689,48.848 350.033,48.827 350.377,48.805 350.721,48.784 351.065,48.762 351.409,48.741 351.753,48.720 352.098,48.699 352.442,48.677 352.786,48.656 353.130,48.635 353.474,48.614 353.818,48.593 354.162,48.572 354.506,48.551 354.850,48.531 355.194,48.510 355.539,48.489 355.883,48.468 356.227,48.448 356.571,48.427 356.915,48.406 357.259,48.386 357.603,48.365 357.947,48.345 358.291,48.325 358.635,48.304 358.980,48.284 359.324,48.264 359.668,48.243 360.012,48.223 360.356,48.203 360.700,48.183 361.044,48.163 361.388,48.143 361.732,48.123 362.076,48.103 362.421,48.083 362.765,48.063 363.109,48.043 363.453,48.024 363.797,48.004 364.141,47.984 364.485,47.965 364.829,47.945 365.173,47.925 365.517,47.906 365.862,47.886 366.206,47.867 366.550,47.848 366.894,47.828 367.238,47.809 367.582,47.790 367.926,47.771 368.270,47.751 368.614,47.732 368.958,47.713 369.303,47.694 369.647,47.675 369.991,47.656 370.335,47.637 370.679,47.618 371.023,47.599 371.367,47.580 371.711,47.562 372.055,47.543 372.399,47.524 372.744,47.506 373.088,47.487 373.432,47.468 373.776,47.450 374.120,47.431 374.464,47.413 374.808,47.394 375.152,47.376 375.496,47.357 375.840,47.339 376.185,47.321 376.529,47.303 376.873,47.284 377.217,47.266 377.561,47.248 377.905,47.230 378.249,47.212 378.593,47.194 378.937,47.176 379.281,47.158 379.626,47.140 379.970,47.122 380.314,47.104 380.658,47.086 381.002,47.069 381.346,47.051 381.690,47.033 382.034,47.015 382.378,46.998 382.722,46.980 383.067,46.963 383.411,46.945 383.755,46.928 384.099,46.910 384.443,46.893 384.787,46.875 385.131,46.858 385.475,46.841 385.819,46.823 386.163,46.806 386.508,46.789 386.852,46.772 387.196,46.754 387.540,46.737 387.884,46.720 388.228,46.703 388.572,46.686 388.916,46.669 389.260,46.652 389.604,46.635 389.949,46.618 390.293,46.602 390.637,46.585 390.981,46.568 391.325,46.551 391.669,46.534 392.013,46.518 392.357,46.501 392.701,46.484 393.045,46.468 393.390,46.451 393.734,46.435 394.078,46.418 394.422,46.402 394.766,46.385 395.110,46.369 395.454,46.353 395.798,46.336 396.142,46.320 396.486,46.304 396.831,46.287 397.175,46.271 397.519,46.255 397.863,46.239 398.207,46.223 398.551,46.207 398.895,46.191 399.239,46.175 399.583,46.159 399.927,46.143 400.272,46.127 400.616,46.111 400.960,46.095 401.304,46.079 401.648,46.063 "
     transform="translate(-27.49025,-10.31112)" />
  <g
     id="g2097"
     style="stroke-width:1.50000001;stroke-miterlimit:4;stroke-dasharray:none"
     transform="translate(-27.49025,-10.31112)" />
  <polyline
     points="126.540,348.880 126.540,345.439 "
     id="polyline2101"
     style="fill:none;stroke:black;stroke-width:0.93750001;stroke-miterlimit:4;stroke-dasharray:none"
     transform="translate(-27.49025,-10.31112)" />
  <polyline
     points="195.360,348.880 195.360,345.439 "
     id="polyline2103"
     style="fill:none;stroke:black;stroke-width:0.93750001;stroke-miterlimit:4;stroke-dasharray:none"
     transform="translate(-27.49025,-10.31112)" />
  <polyline
     points="264.180,348.880 264.180,345.439 "
     id="polyline2105"
     style="fill:none;stroke:black;stroke-width:0.93750001;stroke-miterlimit:4;stroke-dasharray:none"
     transform="translate(-27.49025,-10.31112)" />
  <polyline
     points="333.000,348.880 333.000,345.439 "
     id="polyline2107"
     style="fill:none;stroke:black;stroke-width:0.93750001;stroke-miterlimit:4;stroke-dasharray:none"
     transform="translate(-27.49025,-10.31112)" />
  <polyline
     points="57.720,348.880 401.820,348.880 "
     id="polyline2109"
     style="fill:none;stroke:black;stroke-width:0.93750001;stroke-miterlimit:4;stroke-dasharray:none"
     transform="translate(-27.49025,-10.31112)" />
  <polyline
     points="126.540,29.400 126.540,32.841 "
     id="polyline2111"
     style="fill:none;stroke:black;stroke-width:0.93750001;stroke-miterlimit:4;stroke-dasharray:none"
     transform="translate(-27.49025,-10.31112)" />
  <polyline
     points="195.360,29.400 195.360,32.841 "
     id="polyline2113"
     style="fill:none;stroke:black;stroke-width:0.93750001;stroke-miterlimit:4;stroke-dasharray:none"
     transform="translate(-27.49025,-10.31112)" />
  <polyline
     points="264.180,29.400 264.180,32.841 "
     id="polyline2115"
     style="fill:none;stroke:black;stroke-width:0.93750001;stroke-miterlimit:4;stroke-dasharray:none"
     transform="translate(-27.49025,-10.31112)" />
  <polyline
     points="333.000,29.400 333.000,32.841 "
     id="polyline2117"
     style="fill:none;stroke:black;stroke-width:0.93750001;stroke-miterlimit:4;stroke-dasharray:none"
     transform="translate(-27.49025,-10.31112)" />
  <polyline
     points="57.720,29.400 401.820,29.400 "
     id="polyline2119"
     style="fill:none;stroke:black;stroke-width:0.93750001;stroke-miterlimit:4;stroke-dasharray:none"
     transform="translate(-27.49025,-10.31112)" />
  <g
     transform="translate(30.22975,352.9589)"
     id="g2121"
     style="stroke-width:0.93750001;stroke-miterlimit:4;stroke-dasharray:none">
    <g
       id="g2123"
       style="stroke-width:0.93750001;stroke-miterlimit:4;stroke-dasharray:none">
      <text
         x="0"
         y="0"
         font-size="10.0pt"
         id="text2125"
         style="font-size:12.5px;text-anchor:middle;fill:black;stroke-width:0.93750001;stroke-miterlimit:4;stroke-dasharray:none;font-family:Helvetica">0</text>
    </g>
  </g>
  <g
     transform="translate(99.04975,352.9589)"
     id="g2127"
     style="stroke-width:0.93750001;stroke-miterlimit:4;stroke-dasharray:none">
    <g
       id="g2129"
       style="stroke-width:0.93750001;stroke-miterlimit:4;stroke-dasharray:none">
      <text
         x="0"
         y="0"
         font-size="10.0pt"
         id="text2131"
         style="font-size:12.5px;text-anchor:middle;fill:black;stroke-width:0.93750001;stroke-miterlimit:4;stroke-dasharray:none;font-family:Helvetica">0.2</text>
    </g>
  </g>
  <g
     transform="translate(167.8698,352.9589)"
     id="g2133"
     style="stroke-width:0.93750001;stroke-miterlimit:4;stroke-dasharray:none">
    <g
       id="g2135"
       style="stroke-width:0.93750001;stroke-miterlimit:4;stroke-dasharray:none">
      <text
         x="0"
         y="0"
         font-size="10.0pt"
         id="text2137"
         style="font-size:12.5px;text-anchor:middle;fill:black;stroke-width:0.93750001;stroke-miterlimit:4;stroke-dasharray:none;font-family:Helvetica">0.4</text>
    </g>
  </g>
  <g
     transform="translate(236.6898,352.9589)"
     id="g2139"
     style="stroke-width:0.93750001;stroke-miterlimit:4;stroke-dasharray:none">
    <g
       id="g2141"
       style="stroke-width:0.93750001;stroke-miterlimit:4;stroke-dasharray:none">
      <text
         x="0"
         y="0"
         font-size="10.0pt"
         id="text2143"
         style="font-size:12.5px;text-anchor:middle;fill:black;stroke-width:0.93750001;stroke-miterlimit:4;stroke-dasharray:none;font-family:Helvetica">0.6</text>
    </g>
  </g>
  <g
     transform="translate(305.5098,352.9589)"
     id="g2145"
     style="stroke-width:0.93750001;stroke-miterlimit:4;stroke-dasharray:none">
    <g
       id="g2147"
       style="stroke-width:0.93750001;stroke-miterlimit:4;stroke-dasharray:none">
      <text
         x="0"
         y="0"
         font-size="10.0pt"
         id="text2149"
         style="font-size:12.5px;text-anchor:middle;fill:black;stroke-width:0.93750001;stroke-miterlimit:4;stroke-dasharray:none;font-family:Helvetica">0.8</text>
    </g>
  </g>
  <g
     transform="translate(374.3298,352.9589)"
     id="g2151"
     style="stroke-width:0.93750001;stroke-miterlimit:4;stroke-dasharray:none">
    <g
       id="g2153"
       style="stroke-width:0.93750001;stroke-miterlimit:4;stroke-dasharray:none">
      <text
         x="0"
         y="0"
         font-size="10.0pt"
         id="text2155"
         style="font-size:12.5px;text-anchor:middle;fill:black;stroke-width:0.93750001;stroke-miterlimit:4;stroke-dasharray:none;font-family:Helvetica">1</text>
    </g>
  </g>
  <polyline
     points="57.720,282.322 61.161,282.322 "
     id="polyline2157"
     style="fill:none;stroke:black;stroke-width:0.93750001;stroke-miterlimit:4;stroke-dasharray:none"
     transform="translate(-27.49025,-10.31112)" />
  <polyline
     points="57.720,215.763 61.161,215.763 "
     id="polyline2159"
     style="fill:none;stroke:black;stroke-width:0.93750001;stroke-miterlimit:4;stroke-dasharray:none"
     transform="translate(-27.49025,-10.31112)" />
  <polyline
     points="57.720,149.205 61.161,149.205 "
     id="polyline2161"
     style="fill:none;stroke:black;stroke-width:0.93750001;stroke-miterlimit:4;stroke-dasharray:none"
     transform="translate(-27.49025,-10.31112)" />
  <polyline
     points="57.720,82.647 61.161,82.647 "
     id="polyline2163"
     style="fill:none;stroke:black;stroke-width:0.93750001;stroke-miterlimit:4;stroke-dasharray:none"
     transform="translate(-27.49025,-10.31112)" />
  <polyline
     points="57.720,348.880 57.720,29.400 "
     id="polyline2165"
     style="fill:none;stroke:black;stroke-width:0.93750001;stroke-miterlimit:4;stroke-dasharray:none"
     transform="translate(-27.49025,-10.31112)" />
  <polyline
     points="401.820,282.322 398.379,282.322 "
     id="polyline2167"
     style="fill:none;stroke:black;stroke-width:0.93750001;stroke-miterlimit:4;stroke-dasharray:none"
     transform="translate(-27.49025,-10.31112)" />
  <polyline
     points="401.820,215.763 398.379,215.763 "
     id="polyline2169"
     style="fill:none;stroke:black;stroke-width:0.93750001;stroke-miterlimit:4;stroke-dasharray:none"
     transform="translate(-27.49025,-10.31112)" />
  <polyline
     points="401.820,149.205 398.379,149.205 "
     id="polyline2171"
     style="fill:none;stroke:black;stroke-width:0.93750001;stroke-miterlimit:4;stroke-dasharray:none"
     transform="translate(-27.49025,-10.31112)" />
  <polyline
     points="401.820,82.647 398.379,82.647 "
     id="polyline2173"
     style="fill:none;stroke:black;stroke-width:0.93750001;stroke-miterlimit:4;stroke-dasharray:none"
     transform="translate(-27.49025,-10.31112)" />
  <polyline
     points="401.820,348.880 401.820,29.400 "
     id="polyline2175"
     style="fill:none;stroke:black;stroke-width:0.93750001;stroke-miterlimit:4;stroke-dasharray:none"
     transform="translate(-27.49025,-10.31112)" />
  <g
     transform="translate(23.34775,341.5689)"
     id="g2177"
     style="stroke-width:0.93750001;stroke-miterlimit:4;stroke-dasharray:none">
    <g
       id="g2179"
       style="stroke-width:0.93750001;stroke-miterlimit:4;stroke-dasharray:none">
      <text
         x="0"
         y="0"
         font-size="10.0pt"
         id="text2181"
         style="font-size:12.5px;text-anchor:end;fill:black;stroke-width:0.93750001;stroke-miterlimit:4;stroke-dasharray:none;font-family:Helvetica">0</text>
    </g>
  </g>
  <g
     transform="translate(23.34775,275.0109)"
     id="g2183"
     style="stroke-width:0.93750001;stroke-miterlimit:4;stroke-dasharray:none">
    <g
       id="g2185"
       style="stroke-width:0.93750001;stroke-miterlimit:4;stroke-dasharray:none">
      <text
         x="0"
         y="0"
         font-size="10.0pt"
         id="text2187"
         style="font-size:12.5px;text-anchor:end;fill:black;stroke-width:0.93750001;stroke-miterlimit:4;stroke-dasharray:none;font-family:Helvetica">0.5</text>
    </g>
  </g>
  <g
     transform="translate(23.34775,208.4519)"
     id="g2189"
     style="stroke-width:0.93750001;stroke-miterlimit:4;stroke-dasharray:none">
    <g
       id="g2191"
       style="stroke-width:0.93750001;stroke-miterlimit:4;stroke-dasharray:none">
      <text
         x="0"
         y="0"
         font-size="10.0pt"
         id="text2193"
         style="font-size:12.5px;text-anchor:end;fill:black;stroke-width:0.93750001;stroke-miterlimit:4;stroke-dasharray:none;font-family:Helvetica">1</text>
    </g>
  </g>
  <g
     transform="translate(23.34775,141.8939)"
     id="g2195"
     style="stroke-width:0.93750001;stroke-miterlimit:4;stroke-dasharray:none">
    <g
       id="g2197"
       style="stroke-width:0.93750001;stroke-miterlimit:4;stroke-dasharray:none">
      <text
         x="0"
         y="0"
         font-size="10.0pt"
         id="text2199"
         style="font-size:12.5px;text-anchor:end;fill:black;stroke-width:0.93750001;stroke-miterlimit:4;stroke-dasharray:none;font-family:Helvetica">1.5</text>
    </g>
  </g>
  <g
     transform="translate(23.34775,75.33588)"
     id="g2201"
     style="stroke-width:0.93750001;stroke-miterlimit:4;stroke-dasharray:none">
    <g
       id="g2203"
       style="stroke-width:0.93750001;stroke-miterlimit:4;stroke-dasharray:none">
      <text
         x="0"
         y="0"
         font-size="10.0pt"
         id="text2205"
         style="font-size:12.5px;text-anchor:end;fill:black;stroke-width:0.93750001;stroke-miterlimit:4;stroke-dasharray:none;font-family:Helvetica">2</text>
    </g>
  </g>
  <polyline
     points="57.720,348.880 57.720,345.685 "
     id="polyline2207"
     style="fill:none;stroke:black;stroke-width:0.93750001;stroke-miterlimit:4;stroke-dasharray:none"
     transform="translate(-27.49025,-10.31112)" />
  <polyline
     points="57.720,348.880 57.720,348.880 "
     id="polyline2209"
     style="fill:none;stroke:black;stroke-width:0.93750001;stroke-miterlimit:4;stroke-dasharray:none"
     transform="translate(-27.49025,-10.31112)" />
  <g
     id="g2398"
     transform="translate(387.3478,74.45188)"
     style="stroke-width:0.93750001;stroke-miterlimit:4;stroke-dasharray:none">
    <g
       id="g2400"
       style="stroke-width:0.93750001;stroke-miterlimit:4;stroke-dasharray:none">
      <text
         style="font-size:12.5px;text-anchor:end;fill:black;stroke-width:0.93750001;stroke-miterlimit:4;stroke-dasharray:none;font-family:Helvetica"
         id="text2402"
         font-size="10.0pt"
         y="0"
         x="0">1</text>
    </g>
  </g>
  <g
     id="g2404"
     transform="translate(395.3478,209.0109)"
     style="stroke-width:0.93750001;stroke-miterlimit:4;stroke-dasharray:none">
    <g
       id="g2406"
       style="stroke-width:0.93750001;stroke-miterlimit:4;stroke-dasharray:none">
      <text
         style="font-size:12.5px;text-anchor:end;fill:black;stroke-width:0.93750001;stroke-miterlimit:4;stroke-dasharray:none;font-family:Helvetica"
         id="text2408"
         font-size="10.0pt"
         y="0"
         x="0">0.5</text>
    </g>
  </g>
  <g
     id="g2410"
     transform="translate(385.3478,341.5689)"
     style="stroke-width:0.93750001;stroke-miterlimit:4;stroke-dasharray:none">
    <g
       id="g2412"
       style="stroke-width:0.93750001;stroke-miterlimit:4;stroke-dasharray:none">
      <text
         style="font-size:12.5px;text-anchor:end;fill:black;stroke-width:0.93750001;stroke-miterlimit:4;stroke-dasharray:none;font-family:Helvetica"
         id="text2414"
         font-size="10.0pt"
         y="0"
         x="0">0</text>
    </g>
  </g>
  <path
     style="fill:none;fill-rule:evenodd;stroke:black;stroke-width:0.75;stroke-linecap:butt;stroke-linejoin:miter;stroke-miterlimit:4;stroke-dasharray:none;stroke-opacity:1"
     d="M 29.706836,50.239129 C 373.62262,50.239129 373.62262,50.239129 373.62262,50.239129"
     id="path2416" />
</svg>
