<?xml version="1.0" encoding="UTF-8" standalone="no"?>
<svg
   xmlns:dc="http://purl.org/dc/elements/1.1/"
   xmlns:cc="http://creativecommons.org/ns#"
   xmlns:rdf="http://www.w3.org/1999/02/22-rdf-syntax-ns#"
   xmlns:svg="http://www.w3.org/2000/svg"
   xmlns="http://www.w3.org/2000/svg"
   xmlns:sodipodi="http://sodipodi.sourceforge.net/DTD/sodipodi-0.dtd"
   xmlns:inkscape="http://www.inkscape.org/namespaces/inkscape"
   viewBox="0 0 1442.9733 602.98669"
   height="602.98669"
   width="1442.9733"
   xml:space="preserve"
   id="svg2"
   version="1.1"
   inkscape:version="0.91 r13725"
   sodipodi:docname="WebGL_Logo.svg"><sodipodi:namedview
     pagecolor="#000000"
     bordercolor="#666666"
     borderopacity="1"
     objecttolerance="10"
     gridtolerance="10"
     guidetolerance="10"
     inkscape:pageopacity="0"
     inkscape:pageshadow="2"
     inkscape:window-width="1920"
     inkscape:window-height="1016"
     id="namedview4218"
     showgrid="false"
     inkscape:zoom="0.94665648"
     inkscape:cx="721.48663"
     inkscape:cy="301.49335"
     inkscape:window-x="0"
     inkscape:window-y="27"
     inkscape:window-maximized="1"
     inkscape:current-layer="svg2" /><metadata
     id="metadata8"><rdf:RDF><cc:Work
         rdf:about=""><dc:format>image/svg+xml</dc:format><dc:type
           rdf:resource="http://purl.org/dc/dcmitype/StillImage" /><dc:title></dc:title></cc:Work></rdf:RDF></metadata><defs
     id="defs6" /><g
     id="g4255"><path
       inkscape:connector-curvature="0"
       d="m 1402.5333,400.32534 -9.7867,0 0,25.48133 -8.56,0 0,-25.48133 -9.8,0 0,-7.36133 28.1467,0 0,7.36133 0,0"
       style="fill:#ffffff;fill-opacity:1;fill-rule:nonzero;stroke:none"
       id="path14" /><path
       inkscape:connector-curvature="0"
       d="m 1406.36,392.96401 12.6,0 5.6533,21.89466 0.093,0 5.6667,-21.89466 12.6,0 0,32.84266 -8.0533,0 0,-24.92933 -0.093,0 -6.8933,24.92933 -6.5333,0 -6.9067,-24.92933 -0.093,0 0,24.92933 -8.04,0 0,-32.84266"
       style="fill:#ffffff;fill-opacity:1;fill-rule:nonzero;stroke:none"
       id="path16" /><path
       inkscape:connector-curvature="0"
       d="m 1063.744,423.95334 c -11.9414,5.036 -24,7.55733 -36.1654,7.55733 -19.2093,0 -36.47462,-3.348 -51.81329,-10.02933 -15.34,-6.68533 -28.27467,-15.89067 -38.81067,-27.62933 -10.54133,-11.72533 -18.61466,-25.51067 -24.23333,-41.34667 -5.62,-15.836 -8.432,-32.912 -8.432,-51.212 0,-18.76 2.80267,-36.18266 8.40667,-52.25733 5.60133,-16.068 13.66133,-30.084 24.17466,-42.052 10.51334,-11.96666 23.43067,-21.348 38.76134,-28.15866 15.332,-6.80134 32.59602,-10.208 51.80532,-10.208 12.876,0 25.3387,1.94266 37.3987,5.81866 12.0586,3.88534 22.9426,9.588 32.6626,17.108 9.7187,7.52267 17.7374,16.796 24.0587,27.812 6.324,11.02534 10.1907,23.672 11.5973,37.952 l -52.68,0 c -3.2813,-14.04133 -9.6053,-24.57866 -18.9693,-31.604 -9.3747,-7.02533 -20.7293,-10.53866 -34.068,-10.53866 -12.4147,0 -22.9507,2.40533 -31.61332,7.216 -8.66,4.80933 -15.68667,11.26533 -21.07467,19.356 -5.38933,8.1 -9.30667,17.30666 -11.76133,27.63066 -2.464,10.32267 -3.68534,20.992 -3.68534,32.01733 0,10.56267 1.22934,20.828 3.692,30.79467 2.46534,9.96933 6.38934,18.94533 11.77867,26.91867 5.388,7.976 12.42267,14.364 21.1,19.17466 8.66929,4.81067 19.22269,7.216 31.65599,7.216 18.2827,0 32.3973,-4.612 42.364,-13.83466 9.9693,-9.22534 15.768,-22.59734 17.416,-40.11734 l -55.492,0 0,-41.26 105.212,0 0,135.60267 -35.0093,0 -5.604,-28.448 c -9.8347,12.64533 -20.7294,21.48933 -32.672,26.52133"
       style="fill:#ffffff;fill-opacity:1;fill-rule:nonzero;stroke:none"
       id="path18" /><path
       inkscape:connector-curvature="0"
       d="m 1226.448,174.96535 0,204.17733 122.232,0 0,46.54799 -177.2427,0 0,-250.72532 55.0107,0"
       style="fill:#ffffff;fill-opacity:1;fill-rule:nonzero;stroke:none"
       id="path20" /><path
       inkscape:connector-curvature="0"
       d="M 966.28531,456.85734 C 882.11464,508.05067 756.05065,537.1888 615.39332,537.1888 361.97866,537.1888 156.544,431.66534 156.544,301.49201 c 0,-130.17066 205.43466,-235.695993 458.84932,-235.695993 141.17199,0 267.75066,29.679999 351.92266,81.193333 C 875.43998,60.678684 710.70932,0.02935174 522.36132,0.00135174 233.89466,-0.04664826 0.025,134.90135 0,301.41068 c -0.0244792,166.50399 233.80266,301.53328 522.26932,301.57599 187.6,0.0302 351.90266,-60.42187 444.01599,-146.12933"
       style="fill:#ffffff;fill-opacity:1;fill-rule:nonzero;stroke:none"
       id="path22" /><path
       inkscape:connector-curvature="0"
       d="m 503.99732,155.45735 -48.37333,209.32399 -58.41067,-209.32399 -44.35466,0 -58.28,209.32666 -48.51733,-209.32666 -45.70134,0 71.776,272.83999 42.87867,0 60.38133,-214.29999 59.65333,214.29999 43.00267,0 74.29866,-272.83999 -48.35333,0"
       style="fill:#ffffff;fill-opacity:1;fill-rule:nonzero;stroke:none"
       id="path24" /><path
       inkscape:connector-curvature="0"
       d="m 673.21332,270.29601 c -6.71734,-9.45333 -15.11867,-16.72933 -24.97734,-21.62933 -10.13733,-5.04 -21.89066,-7.59333 -34.93066,-7.59333 -14.67733,0 -27.90133,2.66133 -39.304,7.91066 -10.81333,4.98 -20.044,12.3 -27.436,21.76 -13.68133,17.50667 -20.91333,42.17467 -20.91333,71.33067 0,12.97733 1.84133,25.15333 5.472,36.19333 3.652,11.09867 9.04266,20.84133 16.02266,28.952 14.676,17.05333 35.59867,26.068 60.50667,26.068 13.07866,0 23.75733,-1.368 32.64,-4.18134 7.764,-2.456 12.92266,-5.63866 17.148,-8.42933 5.44533,-3.592 10.44666,-8.008 14.87066,-13.11867 3.75467,-4.34 7.09867,-9.18799 9.94134,-14.40666 5.08933,-9.348 7.55333,-18.08 8.11333,-22.71733 l 0.372,-3.06667 -35.632,0 -0.196,2.52533 c -0.89867,11.576 -16.09333,32.25734 -43.164,32.25734 -38.69866,0 -47.91866,-27.976 -48.53066,-52.61067 l 129.55866,0 0,-2.73733 c 0,-15.88667 -1.62533,-30.392 -4.832,-43.116 -3.27867,-13.016 -8.23333,-24.25067 -14.72933,-33.39067 z m -64.00134,2.92667 c 28.70267,0 44.048,15.44933 46.84267,47.20666 l -92.8,0 c 1.36,-25.86 21.852,-47.20666 45.95733,-47.20666"
       style="fill:#ffffff;fill-opacity:1;fill-rule:nonzero;stroke:none"
       id="path26" /><path
       inkscape:connector-curvature="0"
       d="m 872.10398,296.53201 c -3.45067,-11.024 -8.53733,-20.73733 -15.112,-28.87333 -6.79067,-8.39867 -15.02667,-14.93067 -24.47733,-19.41467 -9.86667,-4.68133 -20.92667,-7.05466 -32.87067,-7.05466 l -0.044,0 c -11.02,0.17866 -21.08267,2.58133 -29.90267,7.144 -7.29333,3.76933 -13.82933,9.06133 -19.496,15.776 l 0,-83.704 -35.48533,0 0,247.93466 33.78133,0 0,-16.87467 c 2.96534,3.88 6.776,7.97333 11.824,11.59067 9.58134,6.86666 21.43467,10.34666 35.23067,10.34666 14.83867,0 28.06667,-3.30933 39.32267,-9.84 10.032,-5.81866 18.52533,-14.20266 25.24666,-24.91466 5.868,-9.352 10.33333,-20.36667 13.26667,-32.74 2.53466,-10.696 3.876,-22.4 3.876,-33.84533 0,-12.64667 -1.736,-24.6 -5.16,-35.53067 z m -31.88533,40.25867 c 0,19.46533 -3.91467,35.77866 -11.32534,47.17733 -7.88933,12.144 -19.33866,18.29867 -34.024,18.29867 -21.23466,0 -46.03066,-14.84934 -46.03066,-56.69734 0,-20.044 2.47733,-35.46533 7.572,-47.15333 7.35733,-16.87467 19.716,-25.07733 37.77733,-25.07733 19.22,0 32.07467,7.53333 39.29733,23.02933 5.96667,12.80667 6.73334,28.32933 6.73334,40.42267"
       style="fill:#ffffff;fill-opacity:1;fill-rule:nonzero;stroke:none"
       id="path28" /></g></svg>